<?xml version="1.0" encoding="utf-8"?>
<!-- Generator: Adobe Illustrator 27.7.0, SVG Export Plug-In . SVG Version: 6.00 Build 0)  -->
<svg version="1.1" id="Layer_1" xmlns="http://www.w3.org/2000/svg" xmlns:xlink="http://www.w3.org/1999/xlink" x="0px" y="0px"
	 viewBox="0 0 1000 1000" style="enable-background:new 0 0 1000 1000;" xml:space="preserve">
<g>
	<g>
		<path d="M393.95,530.34h43.58l24.97-40.81c-9.93-7.07-19.24-14.68-27.88-22.64L393.95,530.34z"/>
		<path d="M423.43,293.38c-23.72,26.13,3.22,73.44,3.22,73.44s-11.7-41.11,5.8-59.07s57.15-6.73,78.26,6.03
			c21.11,12.76,52.8,33.32,89.83,77.85C544.68,295.16,449.31,264.87,423.43,293.38z"/>
		<path d="M548.82,365.29l-21.83,40.1l36.46,82.26c0,0-36.38-8.48-76.89-37.49L544,355.37l-22.05-24.68l-62.34,97.24
			c-1.51-1.43-3.02-2.89-4.52-4.39c-48.9-48.72-77.48-123.1-21.41-147.06c0,0-62.7-6.63-64.99,56.83
			c-2.29,63.46,104.32,205.16,253.16,195.99L548.82,365.29z"/>
		<rect x="604.29" y="393.85" width="15.69" height="15.69"/>
		<rect x="589.98" y="413.99" width="10.15" height="10.15"/>
		<rect x="590.33" y="396.39" width="8.54" height="8.54"/>
		<rect x="571.06" y="383.1" width="11.77" height="11.77"/>
	</g>
	<g>
		<g>
			<path d="M271.38,632.18h-32.85l-5.27,15.55h-22.44l31.85-88.02h24.83l31.85,88.02h-22.69L271.38,632.18z M254.96,583.41
				l-10.78,32.22h21.69L254.96,583.41z"/>
			<path d="M327.93,647.73h-21.44v-69.96h21.44v11.66c4.89-7.4,12.54-12.41,21.94-12.41v22.69h-5.89
				c-10.16,0-16.05,3.51-16.05,15.55V647.73z"/>
			<path d="M388.48,576.76c17.55,0,29.97,9.65,33.6,26.33h-22.82c-1.76-4.89-5.27-8.02-11.16-8.02c-7.65,0-12.91,6.02-12.91,17.68
				s5.27,17.68,12.91,17.68c5.89,0,9.28-2.88,11.16-8.02h22.82c-3.64,16.17-16.05,26.33-33.6,26.33
				c-20.56,0-35.11-13.79-35.11-35.98C353.38,590.68,367.92,576.76,388.48,576.76z"/>
			<path d="M428.47,554.94h21.44v32.22c4.26-6.02,11.91-10.16,21.57-10.16c15.92,0,26.58,11.03,26.58,29.84v40.87h-21.31v-37.99
				c0-9.53-5.27-14.79-13.42-14.79c-8.15,0-13.42,5.27-13.42,14.79v37.99h-21.44V554.94z"/>
			<path d="M539.06,648.73c-20.56,0-35.36-13.79-35.36-35.98s14.54-35.98,35.36-35.98c20.44,0,34.86,13.54,34.86,34.86
				c0,2.01-0.12,4.14-0.38,6.27h-48.52c0.75,9.15,6.39,13.42,13.29,13.42c6.02,0,9.4-3.01,11.16-6.77h22.82
				C568.9,638.2,556.48,648.73,539.06,648.73z M525.14,605.98h26.83c0-7.65-6.02-12.04-13.17-12.04
				C531.78,593.94,526.39,598.2,525.14,605.98z"/>
			<path d="M614.53,648.61c-18.93,0-33.73-9.4-34.35-27.21H603c0.63,6.77,4.89,10.03,10.91,10.03c6.27,0,10.28-3.13,10.28-8.28
				c0-16.3-44.01-7.52-43.76-38.74c0-16.68,13.67-25.95,32.1-25.95c19.18,0,32.1,9.53,32.98,26.33h-23.2
				c-0.38-5.64-4.39-9.03-10.16-9.15c-5.14-0.12-9.03,2.51-9.03,8.02c0,15.3,43.51,8.4,43.51,37.87
				C646.63,636.32,635.09,648.61,614.53,648.61z"/>
			<path d="M705.55,577.76h23.2l-43.88,103.19H661.8l16.05-35.61l-28.46-67.58h23.95l16.17,43.76L705.55,577.76z"/>
			<path d="M757.46,648.73c-18.68,0-31.22-10.41-32.22-23.95h21.19c0.5,4.89,4.89,8.15,10.78,8.15c5.52,0,8.4-2.51,8.4-5.64
				c0-11.28-38.12-3.13-38.12-28.84c0-11.91,10.16-21.69,28.46-21.69c18.06,0,28.09,10.03,29.46,23.82h-19.81
				c-0.63-4.76-4.26-7.9-10.28-7.9c-5.02,0-7.77,2.01-7.77,5.39c0,11.16,37.87,3.26,38.24,29.34
				C785.79,639.58,775.01,648.73,757.46,648.73z"/>
		</g>
	</g>
</g>
</svg>
