<svg width="494" height="116" viewBox="0 0 494 116" fill="none" xmlns="http://www.w3.org/2000/svg">
<path d="M33.9673 89.1185C29.2598 89.1185 25.0798 88.1851 21.4274 86.3184C17.8562 84.4516 15.0154 81.8137 12.9051 78.4048L11.5659 87.6576H0V0H12.9051V36.6457C14.8531 33.805 17.5315 31.2889 20.9404 29.0974C24.3493 26.906 28.7322 25.8103 34.0891 25.8103C39.9329 25.8103 45.0868 27.1901 49.5509 29.9497C54.0149 32.7093 57.505 36.4834 60.0211 41.2721C62.6183 46.0608 63.917 51.4988 63.917 57.5861C63.917 63.6735 62.6183 69.1115 60.0211 73.9002C57.505 78.6077 54.0149 82.3413 49.5509 85.1009C45.0868 87.7793 39.8923 89.1185 33.9673 89.1185ZM31.7759 77.9178C37.295 77.9178 41.8403 76.051 45.4115 72.3175C48.9827 68.5028 50.7683 63.5517 50.7683 57.4644C50.7683 53.4873 49.9567 49.9567 48.3334 46.8724C46.7101 43.7882 44.4781 41.3938 41.6373 39.6894C38.7966 37.9038 35.5094 37.011 31.7759 37.011C26.2567 37.011 21.7115 38.9183 18.1402 42.7331C14.6502 46.5478 12.9051 51.4582 12.9051 57.4644C12.9051 63.5517 14.6502 68.5028 18.1402 72.3175C21.7115 76.051 26.2567 77.9178 31.7759 77.9178Z" fill="#4068F7"/>
<path d="M73.2226 87.6576V0H86.1278V87.6576H73.2226Z" fill="#4068F7"/>
<path d="M120.098 89.1185C112.793 89.1185 107.03 86.8459 102.81 82.3007C98.6702 77.7555 96.6005 70.9783 96.6005 61.969V27.2712H109.506V60.6298C109.506 72.3175 114.294 78.1613 123.872 78.1613C128.66 78.1613 132.597 76.4569 135.681 73.048C138.765 69.6391 140.308 64.7692 140.308 58.4384V27.2712H153.213V87.6576H141.768L140.795 77.0656C138.928 80.7992 136.168 83.7617 132.516 85.9531C128.945 88.0634 124.805 89.1185 120.098 89.1185Z" fill="#4068F7"/>
<path d="M193.222 89.1185C187.297 89.1185 182.022 87.8199 177.395 85.2226C172.85 82.5442 169.279 78.8512 166.682 74.1437C164.084 69.4361 162.786 63.9576 162.786 57.7079C162.786 51.3771 164.044 45.8173 166.56 41.0286C169.157 36.2399 172.728 32.5063 177.273 29.8279C181.9 27.1495 187.257 25.8103 193.344 25.8103C199.269 25.8103 204.423 27.1495 208.806 29.8279C213.189 32.4252 216.598 35.9152 219.033 40.2981C221.467 44.681 222.685 49.5103 222.685 54.786C222.685 55.5976 222.644 56.4904 222.563 57.4644C222.563 58.3572 222.523 59.3718 222.441 60.5081H175.447C175.853 66.3519 177.76 70.8159 181.169 73.9002C184.659 76.9033 188.677 78.4048 193.222 78.4048C196.875 78.4048 199.918 77.5932 202.353 75.9699C204.869 74.2654 206.736 71.9928 207.954 69.1521H220.859C219.235 74.8336 215.989 79.5817 211.119 83.3964C206.33 87.2112 200.365 89.1185 193.222 89.1185ZM193.222 36.4022C188.921 36.4022 185.106 37.7009 181.778 40.2981C178.45 42.8142 176.421 46.629 175.691 51.7423H209.78C209.536 47.0348 207.872 43.3012 204.788 40.5416C201.704 37.782 197.849 36.4022 193.222 36.4022Z" fill="#4068F7"/>
<path d="M283.967 87.6576C278.042 87.6576 273.335 86.2372 269.844 83.3964C266.354 80.4745 264.609 75.3206 264.609 67.9346V38.1067H254.261V27.2712H264.609L266.192 11.9312H277.514V27.2712H319.052L316.971 38.1067H277.514V67.9346C277.514 71.2624 278.204 73.5755 279.584 74.8742C281.045 76.0916 283.521 76.7004 287.011 76.7004H293.95V87.6576H283.967Z" fill="#4068F7"/>
<path d="M312.599 15.8271C310.165 15.8271 308.135 15.0966 306.512 13.6356C304.97 12.0935 304.199 10.1861 304.199 7.91353C304.199 5.64093 304.97 3.77414 306.512 2.31318C308.135 0.771061 310.165 0 312.599 0C315.034 0 317.023 0.771061 318.565 2.31318C320.188 3.77414 321 5.64093 321 7.91353C321 10.1861 320.188 12.0935 318.565 13.6356C317.023 15.0966 315.034 15.8271 312.599 15.8271ZM306.147 87.6576V27.2712H319.052V87.6576H306.147Z" fill="#4068F7"/>
<path d="M356.87 69.1521C353.704 69.1521 350.782 68.7868 348.104 68.0563L342.869 73.1697C343.762 73.7379 344.857 74.2249 346.156 74.6307C347.455 75.0365 349.281 75.4017 351.635 75.7264C353.988 76.051 357.194 76.3757 361.253 76.7004C369.288 77.4308 375.091 79.3788 378.662 82.5442C382.234 85.6284 384.019 89.7678 384.019 94.9624C384.019 98.5336 383.045 101.902 381.097 105.067C379.23 108.314 376.268 110.911 372.21 112.859C368.233 114.888 363.119 115.903 356.87 115.903C348.429 115.903 341.57 114.279 336.294 111.033C331.1 107.868 328.503 103.038 328.503 96.5451C328.503 94.029 329.152 91.5129 330.451 88.9968C331.83 86.5619 333.981 84.2487 336.903 82.0572C335.199 81.3267 333.697 80.5557 332.399 79.744C331.181 78.8512 330.085 77.9584 329.111 77.0656V74.1437L339.582 63.43C334.874 59.3718 332.52 54.0555 332.52 47.4812C332.52 43.5041 333.454 39.8923 335.321 36.6457C337.268 33.318 340.069 30.6801 343.721 28.7322C347.373 26.7843 351.756 25.8103 356.87 25.8103C360.279 25.8103 363.444 26.2973 366.366 27.2712C366.366 27.2712 374.973 29.8279 378.175 36.4022C381.378 42.9766 381.097 43.423 381.097 47.4812C381.097 51.5394 380.123 55.1918 378.175 58.4384C376.309 61.685 373.549 64.2822 369.897 66.2302C366.325 68.1781 361.983 69.1521 356.87 69.1521ZM356.87 59.0471C360.603 59.0471 363.606 58.0731 365.879 56.1252C368.233 54.0961 369.41 51.2553 369.41 47.6029C369.41 43.8694 368.233 41.0286 365.879 39.0807C363.606 37.1327 360.603 36.1587 356.87 36.1587C353.055 36.1587 349.971 37.1327 347.617 39.0807C345.344 41.0286 344.208 43.8694 344.208 47.6029C344.208 51.2553 345.344 54.0961 347.617 56.1252C349.971 58.0731 353.055 59.0471 356.87 59.0471ZM340.677 95.3276C340.677 98.8177 342.22 101.415 345.304 103.119C348.388 104.905 352.243 105.798 356.87 105.798C361.334 105.798 364.946 104.824 367.705 102.876C370.465 101.009 371.845 98.493 371.845 95.3276C371.845 92.9738 370.911 90.9447 369.044 89.2403C367.178 87.617 363.647 86.6024 358.452 86.1966C354.556 85.9531 351.107 85.5879 348.104 85.1009C345.263 86.643 343.315 88.3069 342.26 90.0925C341.205 91.8781 340.677 93.6232 340.677 95.3276Z" fill="#4068F7"/>
<path d="M419.615 89.1185C413.69 89.1185 408.414 87.8199 403.788 85.2226C399.242 82.5442 395.671 78.8512 393.074 74.1437C390.477 69.4361 389.178 63.9576 389.178 57.7079C389.178 51.3771 390.436 45.8173 392.952 41.0286C395.549 36.2399 399.121 32.5063 403.666 29.8279C408.292 27.1495 413.649 25.8103 419.736 25.8103C425.661 25.8103 430.815 27.1495 435.198 29.8279C439.581 32.4252 442.99 35.9152 445.425 40.2981C447.86 44.681 449.077 49.5103 449.077 54.786C449.077 55.5976 449.037 56.4904 448.956 57.4644C448.956 58.3572 448.915 59.3718 448.834 60.5081H401.84C402.246 66.3519 404.153 70.8159 407.562 73.9002C411.052 76.9033 415.07 78.4048 419.615 78.4048C423.267 78.4048 426.311 77.5932 428.746 75.9699C431.262 74.2654 433.129 71.9928 434.346 69.1521H447.251C445.628 74.8336 442.381 79.5817 437.511 83.3964C432.723 87.2112 426.757 89.1185 419.615 89.1185ZM419.615 36.4022C415.313 36.4022 411.498 37.7009 408.171 40.2981C404.843 42.8142 402.814 46.629 402.083 51.7423H436.172C435.929 47.0348 434.265 43.3012 431.181 40.5416C428.096 37.782 424.241 36.4022 419.615 36.4022Z" fill="#4068F7"/>
<path d="M458.815 87.6576V27.2712H470.381L471.477 38.7154C473.587 34.7384 476.509 31.6135 480.243 29.3409C484.057 26.9872 488.643 25.8103 494 25.8103V39.3242H490.469C486.898 39.3242 483.692 39.9329 480.851 41.1504C478.092 42.2867 475.86 44.2752 474.155 47.1159C472.532 49.8755 471.72 53.7308 471.72 58.6819V87.6576H458.815Z" fill="#4068F7"/>
<path d="M375.498 37.8814L382.97 30.6668L374.955 24.4125L367.396 32.0116L375.498 37.8814Z" fill="#4068F7"/>
<ellipse cx="378.971" cy="27.3588" rx="4.8404" ry="5.05086" fill="#4068F7"/>
</svg>
