<svg width="142" height="32" viewBox="0 0 142 32" fill="none" xmlns="http://www.w3.org/2000/svg">
<path d="M24.6106 7.68291C29.1298 11.4749 29.7193 18.2125 25.9272 22.7317C22.1352 27.2509 15.3976 27.8404 10.8784 24.0483C6.35923 20.2563 5.76976 13.5187 9.56182 8.99951C13.3538 4.48032 20.0914 3.89085 24.6106 7.68291Z" fill="#DE911D"/>
<path opacity="0.8" d="M26.8054 4.56795C23.7237 1.98211 19.7483 0.717759 15.7536 1.05303C11.7589 1.38829 8.0723 3.29572 5.50467 6.35569C2.93705 9.41567 1.69878 13.3776 2.06227 17.3698C2.42576 21.3619 4.36124 25.0574 7.44291 27.6433L26.8054 4.56795Z" fill="#714B57"/>
<path opacity="0.9" d="M5.6967 6.23438C3.05996 9.37671 1.77951 13.4378 2.13702 17.5242C2.49454 21.6106 4.46074 25.3876 7.60308 28.0244C10.7454 30.6611 14.8065 31.9416 18.8929 31.5841C22.9793 31.2265 26.7564 29.2603 29.3931 26.118L15.1589 19.0197L5.6967 6.23438Z" fill="#313759"/>
<path d="M40.768 24.224C39.4 24.224 38.208 23.9 37.192 23.252C36.184 22.596 35.4 21.66 34.84 20.444C34.28 19.228 34 17.768 34 16.064C34 14.304 34.288 12.828 34.864 11.636C35.448 10.436 36.248 9.532 37.264 8.924C38.288 8.308 39.456 8 40.768 8C42.584 8 44 8.44 45.016 9.32C46.04 10.2 46.696 11.344 46.984 12.752L43.96 13.304C43.712 12.488 43.316 11.828 42.772 11.324C42.228 10.82 41.56 10.568 40.768 10.568C40.072 10.568 39.444 10.772 38.884 11.18C38.324 11.58 37.876 12.188 37.54 13.004C37.212 13.82 37.048 14.84 37.048 16.064C37.048 17.216 37.192 18.208 37.48 19.04C37.776 19.872 38.2 20.512 38.752 20.96C39.304 21.408 39.976 21.632 40.768 21.632C41.784 21.632 42.568 21.364 43.12 20.828C43.68 20.284 43.96 19.592 43.96 18.752H46.984C46.984 19.912 46.732 20.9 46.228 21.716C45.732 22.524 45.02 23.144 44.092 23.576C43.164 24.008 42.056 24.224 40.768 24.224Z" fill="#1B1F35"/>
<path d="M54.8989 24.224C53.8349 24.224 52.8709 23.996 52.0069 23.54C51.1509 23.084 50.4709 22.404 49.9669 21.5C49.4629 20.588 49.2109 19.448 49.2109 18.08C49.2109 16.688 49.4629 15.536 49.9669 14.624C50.4709 13.712 51.1509 13.032 52.0069 12.584C52.8709 12.136 53.8349 11.912 54.8989 11.912C55.9469 11.912 56.8949 12.136 57.7429 12.584C58.5989 13.032 59.2789 13.712 59.7829 14.624C60.2869 15.536 60.5389 16.688 60.5389 18.08C60.5389 19.448 60.2869 20.588 59.7829 21.5C59.2789 22.404 58.5989 23.084 57.7429 23.54C56.8949 23.996 55.9469 24.224 54.8989 24.224ZM54.8029 21.752C55.3629 21.752 55.8589 21.616 56.2909 21.344C56.7309 21.064 57.0749 20.652 57.3229 20.108C57.5789 19.564 57.7069 18.888 57.7069 18.08C57.7069 16.848 57.4629 15.92 56.9749 15.296C56.4949 14.672 55.8349 14.36 54.9949 14.36C54.4269 14.36 53.9229 14.5 53.4829 14.78C53.0429 15.052 52.6949 15.464 52.4389 16.016C52.1909 16.568 52.0669 17.256 52.0669 18.08C52.0669 19.296 52.3109 20.212 52.7989 20.828C53.2949 21.444 53.9629 21.752 54.8029 21.752Z" fill="#1B1F35"/>
<path d="M71.3247 23.888L70.9647 21.056V16.376C70.9647 15.56 70.7967 14.956 70.4607 14.564C70.1327 14.172 69.5727 13.976 68.7807 13.976C68.3247 13.976 67.9287 14.044 67.5927 14.18C67.2567 14.316 66.9967 14.512 66.8127 14.768C66.6367 15.016 66.5487 15.32 66.5487 15.68H63.4527C63.4527 14.8 63.6647 14.084 64.0887 13.532C64.5127 12.972 65.1207 12.564 65.9127 12.308C66.7127 12.044 67.6687 11.912 68.7807 11.912C69.7887 11.912 70.6687 12.076 71.4207 12.404C72.1727 12.724 72.7567 13.22 73.1727 13.892C73.5887 14.564 73.7967 15.424 73.7967 16.472V23.888H71.3247ZM67.5087 24.224C66.5087 24.224 65.6727 24.052 65.0007 23.708C64.3367 23.356 63.8367 22.896 63.5007 22.328C63.1647 21.76 62.9967 21.144 62.9967 20.48C62.9967 19.744 63.1887 19.128 63.5727 18.632C63.9647 18.128 64.5167 17.752 65.2287 17.504C65.9407 17.248 66.7807 17.12 67.7487 17.12C68.3807 17.12 68.9767 17.168 69.5367 17.264C70.1047 17.36 70.6687 17.488 71.2287 17.648V19.304C70.7887 19.16 70.3087 19.048 69.7887 18.968C69.2687 18.888 68.7807 18.848 68.3247 18.848C67.6527 18.848 67.1007 18.972 66.6687 19.22C66.2367 19.468 66.0207 19.888 66.0207 20.48C66.0207 20.912 66.1967 21.284 66.5487 21.596C66.9007 21.908 67.4607 22.064 68.2287 22.064C68.8127 22.064 69.3087 21.936 69.7167 21.68C70.1247 21.424 70.4327 21.104 70.6407 20.72C70.8567 20.336 70.9647 19.952 70.9647 19.568H71.6367C71.6367 20.408 71.4807 21.184 71.1687 21.896C70.8567 22.6 70.3927 23.164 69.7767 23.588C69.1687 24.012 68.4127 24.224 67.5087 24.224Z" fill="#1B1F35"/>
</svg>
