<svg id="Layer_1" data-name="Layer 1" xmlns="http://www.w3.org/2000/svg" viewBox="0 0 2836.75 826.37"><defs><style>.cls-1{fill:#0e48a2;}.cls-2{fill:#1049a3;}</style></defs><path class="cls-1" d="M1136.74,1135.5a540.26,540.26,0,0,0-3.34-59.37c-1.51-14.64-3.43-29.21-6-43.71a17.73,17.73,0,0,1,0-3.78c0-.08.62-.28.73-.18a17.34,17.34,0,0,1,2.6,2.61q10.93,15.78,20.31,32.54a401.73,401.73,0,0,1,42.56,111.6,388.87,388.87,0,0,1,6.8,43.57,345.71,345.71,0,0,1,1.41,47.93c-1.43,39.39-9.37,77.42-25.52,113.47-28.94,64.59-76.46,110.23-141.69,137.5-22.21,9.28-45.3,15.48-69,19.63a390.08,390.08,0,0,1-89.87,5.09,316.11,316.11,0,0,1-98.81-22,322.66,322.66,0,0,1-123.41-85.67c-33.71-37.62-56.88-80.92-69-130a302.94,302.94,0,0,1-8.19-79c1.89-54.47,16.16-105.29,44.87-151.86a441.33,441.33,0,0,1,42.91-57.68c18.47-21.29,38.4-41.18,58.6-60.8,17-16.5,34.08-32.88,51.09-49.35a457.25,457.25,0,0,0,39.67-43,255.43,255.43,0,0,0,22.36-32.33c6.71-11.69,12.32-23.85,15.54-37a98.22,98.22,0,0,0,3-18.91c.85-18.21-4.06-34.77-14.15-49.86-1.6-2.39-3.27-4.72-4.88-7.1a.87.87,0,0,1,0-.8.9.9,0,0,1,.76-.33,7.11,7.11,0,0,1,1.78.68c34.16,19.17,57.8,47,69.19,84.7a151.11,151.11,0,0,1,5.62,60.71c-3,27.35-11,53.12-23,77.77-10.11,20.79-22.66,40.06-36.5,58.52-11.53,15.37-23.81,30.12-36.59,44.45q-25.86,29-51.88,57.91a201.38,201.38,0,0,0-15.64,19.43,108.47,108.47,0,0,0-12.78,23.55c-2.93,7.84-5,15.86-4.66,24.33.56,13.58,6,24.83,16.94,32.94,13.21,9.76,28.06,12.15,43.73,7.82,14.61-4,24.25-13.81,29.26-28a75,75,0,0,0,3.84-21.65,77,77,0,0,0-.72-16.26,53.36,53.36,0,0,0-9.42-22.83,1.42,1.42,0,0,1,1-2.12c.63,0,1.27-.2,1.9-.18,21.8.66,37.69,10.67,47.53,30.15a46.4,46.4,0,0,1,2.13,5.34c.63,1.77.89,3.73,2.78,4.76,1-1.21,2.05-2.38,3-3.63q10.43-13.77,20.82-27.56c9.44-12.52,19-25,28.27-37.58a462.33,462.33,0,0,0,30.51-46.51c8.69-15.35,16-31.28,21.06-48.23a151.92,151.92,0,0,0,6.46-40.62,144.33,144.33,0,0,0-8.32-49.89,198.37,198.37,0,0,0-22.82-45.28c-4.25-6.39-8.81-12.57-13.23-18.85-2.21-3.13-4.46-6.24-6.61-9.41-.26-.38,0-1.11,0-1.66a1.26,1.26,0,0,1,.77,0c1.09.65,2.18,1.32,3.22,2,24.89,17.54,48.51,36.61,69.83,58.43a287.75,287.75,0,0,1,31.85,38.34,192.88,192.88,0,0,1,24.87,49.55,150.21,150.21,0,0,1,6.87,58.69,184,184,0,0,1-10.38,46.68,300.94,300.94,0,0,1-22.57,48.66c-6.33,11.12-13,22-19.76,32.9-7.95,12.75-16.17,25.34-24.25,38-8.42,13.22-16.5,26.65-23.57,40.65a179.14,179.14,0,0,0-13.15,32.9c-3.12,11.31-3.76,22.7-.92,34.14,3,12.17,9.15,22.58,19,30.38,19.44,15.41,41.28,19.75,65,12.16,19.55-6.27,31.36-20.19,36.61-39.83,2.85-10.67,2.86-21.56,1.54-32.41a164.81,164.81,0,0,0-3.91-19.74,62.67,62.67,0,0,0-11-23.23,2.67,2.67,0,0,1-.36-.84c.46-.26,1-.73,1.44-.62a166,166,0,0,1,20,6.67,54.36,54.36,0,0,1,25.68,22.24c1.48,2.45,3,4.87,4.63,7.23a1.87,1.87,0,0,0,1.69,0,40.32,40.32,0,0,0,2.48-5.18,296,296,0,0,0,13.67-47.89A414.07,414.07,0,0,0,1136.74,1135.5Z" transform="translate(-576.21 -716.7)"/><path class="cls-1" d="M2143.76,1110.61q0-66.24,0-132.46c0-2.88.07-5.76.17-8.63a3,3,0,0,1,3.11-2.9c1.28-.06,2.56-.07,3.84-.07h67.19c1.28,0,2.56,0,3.84,0,2.4.07,3.65,1.17,3.67,3.35.06,5.12,0,10.24.08,15.36q.06,9.12.19,18.23c0,1.27-.21-.34.73.54a.91.91,0,0,0,.81.19,12.06,12.06,0,0,0,2.21-1.73c4.61-4.89,8.95-10,13.79-14.69a93.41,93.41,0,0,1,42.14-23.74,107,107,0,0,1,39-2.32,98,98,0,0,1,16.94,3.24c19.77,5.89,35.56,17.15,46.75,34.62,1,1.62,2.06,3.23,3.12,4.82a2,2,0,0,0,2.54.25c2.68-2.74,5.34-5.5,8-8.23a124.42,124.42,0,0,1,25.62-20.06A109.87,109.87,0,0,1,2469,962.3c16.7-2.28,33.23-1.74,49.5,2.54,28.24,7.44,47.89,24.7,58.35,52.13a121.67,121.67,0,0,1,7.39,34.58c.4,5.42.48,10.87.48,16.31q0,89.75,0,179.49c0,1.6,0,3.2-.07,4.8-.09,2.3-1.13,3.22-3.71,3.34-.32,0-.63,0-1,0q-36.48,0-72.95,0a3.85,3.85,0,0,1-1.88-.26c-.74-.45-1.81-1.14-1.88-1.82a85.12,85.12,0,0,1-.35-8.61q0-68.62,0-137.25c0-9.28.06-18.56-1-27.8a63.29,63.29,0,0,0-4.49-17.6c-6.89-16.31-19.43-24.93-36.93-26.3a59,59,0,0,0-20.93,1.63c-13.14,3.74-22.48,11.76-28.2,24.08a62.77,62.77,0,0,0-5.54,22.22c-.37,5.42-.39,10.87-.39,16.3q0,72.48,0,144.94c0,2.87-.18,5.74-.41,8.59a1.86,1.86,0,0,1-1.21,1.26,33.6,33.6,0,0,1-5.65.64c-16,0-32,0-48,0-6.72,0-13.44,0-20.15,0a27,27,0,0,1-4.75-.43,2.08,2.08,0,0,1-1.75-2c-.12-3.19-.22-6.38-.22-9.58q0-70.54,0-141.1c0-4.79,0-9.59-.12-14.39a79.41,79.41,0,0,0-3.76-21.67,47.13,47.13,0,0,0-2-5.38c-6.39-14.32-17.53-22.6-32.9-24.8a58.5,58.5,0,0,0-24.74,1.37,42.28,42.28,0,0,0-26.79,21.67,55.35,55.35,0,0,0-5.68,17.23,129.66,129.66,0,0,0-1.69,21c.11,20.8,0,41.59,0,62.39q0,42.24,0,84.47c0,2.87-.07,5.75-.14,8.63a3,3,0,0,1-2.55,2.4c-.63,0-1.27.13-1.91.13h-72.95l-1,0c-2.18-.12-3.25-1.31-3.32-3.79-.06-2.23-.06-4.47-.06-6.71q0-11.52,0-23Z" transform="translate(-576.21 -716.7)"/><path class="cls-2" d="M2799.4,1139.6q-44.62,0-89.26,0c-2.87,0-5.74.13-8.61.23-.76,0-1.8,1.25-1.65,1.94,5.1,23.51,18,40.64,40.81,49.47,10.31,4,21.1,5,32.06,4.82a88.25,88.25,0,0,0,52.66-17.93c4.36-3.24,8.55-6.71,12.83-10.06a2.85,2.85,0,0,1,3.53.16c.49.4,1,.8,1.47,1.23q19.76,17.49,39.5,35a19,19,0,0,1,2.61,2.78,2.13,2.13,0,0,1,.2,1.76,8.36,8.36,0,0,1-1.52,2.39c-21.72,24.94-48.4,41.39-81.16,47.5a181.75,181.75,0,0,1-55.38,1.89c-20.58-2.46-40.07-8.28-58-18.58-34.51-19.8-56.42-49.42-66.63-87.67-5.08-19-6.25-38.4-4.46-58a159.28,159.28,0,0,1,14.18-53.47c15.55-33.27,40-57.42,74-71.79a131.81,131.81,0,0,1,40.89-9.7c18-1.47,35.84-.39,53.3,4.31,32.68,8.78,57.88,27.76,75.93,56.33a152,152,0,0,1,17.94,42.2c6.17,23.1,7.82,46.6,6.26,70.39a6.75,6.75,0,0,1-.52,2.8,3.44,3.44,0,0,1-2.09,1.69c-2.85.28-5.73.34-8.6.34Q2844.51,1139.62,2799.4,1139.6Zm-40-51.42h50.78c2.55,0,5.11,0,7.66-.08,2,0,3.22-1.17,3-2.81-2.49-17.63-9.45-33.07-22.69-45.26a45.81,45.81,0,0,0-17.31-10,66.34,66.34,0,0,0-32.15-2.11c-10.35,1.82-19.52,6-27.12,13.21a73.91,73.91,0,0,0-8.81,10.06c-7.42,10.27-11.75,21.86-13.94,34.29a1.4,1.4,0,0,0,.13.93c.31.49.7,1.23,1.13,1.28a58.91,58.91,0,0,0,6.64.44Q2733,1088.21,2759.36,1088.18Z" transform="translate(-576.21 -716.7)"/><path class="cls-2" d="M2045.79,1167c2,1.57,3.75,2.9,5.42,4.38q18.7,16.5,37.36,33.06a21.51,21.51,0,0,1,2.67,2.73,2.09,2.09,0,0,1,.23,1.73,8,8,0,0,1-1.43,2.44c-21.19,24.48-47.33,40.72-79.2,47.27a176.61,176.61,0,0,1-62,1.7c-26.08-3.89-50-13.2-70.83-29.64-25.78-20.37-42.07-46.89-50-78.64a144.06,144.06,0,0,1-4.21-33.23c-.15-12.16,0-24.3,2.25-36.32,6-32.32,19.79-60.69,43.8-83.5a133.6,133.6,0,0,1,75.59-36.43,156.3,156.3,0,0,1,60,3c29.95,7.57,54,24.18,72.14,49.25a142.79,142.79,0,0,1,21,42.87,206.55,206.55,0,0,1,7.95,77.77c-.22,2.55-.36,4.16-3.95,4.16-2.88,0-5.76,0-8.63,0H1912.53c-7.14,0-7.45.27-5.47,7.83.24.92.63,1.8.94,2.71,9.31,27.47,28.84,42.07,57.27,45.34a100.65,100.65,0,0,0,31.49-1.46,82.76,82.76,0,0,0,24.09-9.15,123.91,123.91,0,0,0,18.13-12.53C2041.18,1170.53,2043.45,1168.8,2045.79,1167Zm-79.58-78.77q25.39,0,50.8,0c2.55,0,5.11-.09,7.66-.19a2.26,2.26,0,0,0,2.27-2.43,87.85,87.85,0,0,0-7.08-23.78,68.78,68.78,0,0,0-12.9-18.91,49,49,0,0,0-20.94-13,65.93,65.93,0,0,0-31.23-2c-11.39,2-21.23,6.77-29.3,15a70.7,70.7,0,0,0-6.22,7.28c-7.52,10.21-12,21.76-14.44,34.11a3.89,3.89,0,0,0,.08,1.89c.16.52.6,1.28,1,1.35a34.44,34.44,0,0,0,5.64.56Q1938.89,1088.21,1966.21,1088.18Z" transform="translate(-576.21 -716.7)"/><path class="cls-2" d="M1561.06,1139.6h-89.25c-2.88,0-5.76.06-8.63.13a2.25,2.25,0,0,0-1.91,2.72,11.63,11.63,0,0,0,.28,1.89c1.58,4.52,2.92,9.14,4.85,13.51,8.18,18.45,22.44,29.87,41.66,35.39a77.81,77.81,0,0,0,16.07,2.56c22.52,1.64,43.17-3.55,61.54-16.92,4.65-3.38,9-7.1,13.58-10.65a2.72,2.72,0,0,1,3.5-.15c1,.8,2,1.6,3,2.44q18.68,16.54,37.35,33.09c1.19,1.06,2.32,2.2,3.46,3.31a2.37,2.37,0,0,1,.13,2.64c-.57.77-1.1,1.58-1.73,2.3-20,22.74-44.25,38.55-73.87,45.57a174.65,174.65,0,0,1-58.11,3.81,157.69,157.69,0,0,1-43.72-10.27c-43.93-17.72-72-49.81-84.79-95.14-5.89-20.84-6.86-42.16-4.36-63.72a156.54,156.54,0,0,1,19.7-60.67q26.67-46.43,77.49-63.69a131.29,131.29,0,0,1,31-6.19,156.7,156.7,0,0,1,53.32,4.13c28.2,7.37,51.18,22.8,69,45.87a143.46,143.46,0,0,1,24.16,48.69,212.36,212.36,0,0,1,7.76,69.28c-.14,2.85,0,5.78-1.28,8.46a2.16,2.16,0,0,1-1.32,1.16c-2.53.24-5.08.42-7.62.42Q1606.65,1139.63,1561.06,1139.6Zm-40.23-51.42q25.89,0,51.77,0c2.55,0,5.1-.12,7.66-.21.73,0,1.72-1.23,1.79-1.9.37-3.62-1-6.94-1.87-10.31a73.06,73.06,0,0,0-16.21-31.14,50.28,50.28,0,0,0-27.65-16.17,68.58,68.58,0,0,0-24.75-.76,53.56,53.56,0,0,0-35.5,20.64c-8.67,11.07-13.61,23.73-16.13,37.44a2,2,0,0,0,1.49,2.08c2.22.14,4.45.32,6.68.32Q1494.47,1088.21,1520.83,1088.18Z" transform="translate(-576.21 -716.7)"/><path class="cls-2" d="M2937.82,1110.57q0-66.24,0-132.47c0-2.88.06-5.76.14-8.63a3.1,3.1,0,0,1,3.17-2.86c1-.05,1.92-.07,2.88-.07q35,0,70.07,0a11.87,11.87,0,0,1,3.78.4,3,3,0,0,1,1.81,1.87,51.42,51.42,0,0,1,.31,6.69c.05,9,.05,17.92.11,26.88a4.78,4.78,0,0,0,.69,1.59c.3.64,1.4.28,2.37-.82,1.48-1.69,2.88-3.43,4.4-5.07,3.06-3.28,6-6.63,9.28-9.72,12.25-11.69,26.33-20.25,42.88-24.35a88.74,88.74,0,0,1,13.19-2.45c16.07-1.43,31.92-.25,47.43,4.63,20.81,6.55,36.43,19.46,47.4,38.19,6.88,11.75,10.79,24.52,13,37.88a163.19,163.19,0,0,1,2,26.77q0,88.79,0,177.58c0,9.18.7,8.95-8.79,8.94h-64.31c-1.92,0-3.84,0-5.75-.14a3.12,3.12,0,0,1-3.18-2.9c-.07-2.56-.09-5.12-.09-7.68q0-22.06,0-44.15,0-50.4,0-100.79c0-5.44-.18-10.88-.42-16.31a60.38,60.38,0,0,0-4-18.69c-6.64-17.62-19.64-27.14-38.21-28.94a60.65,60.65,0,0,0-22.85,1.64c-13.4,3.84-23.17,11.87-29.07,24.52a63.4,63.4,0,0,0-5.65,23.16c-.31,5.1-.31,10.23-.31,15.35,0,47.36,0,94.71-.05,142.07,0,14.44,2.2,12.8-12.57,12.85-19.52.07-39,0-58.55,0-2.88,0-5.75-.15-8.63-.27a2.89,2.89,0,0,1-2.3-2.64c0-2.56-.08-5.12-.09-7.68V1110.57Z" transform="translate(-576.21 -716.7)"/><path class="cls-2" d="M3262.8,1114.67q0-34.07,0-68.13a72.47,72.47,0,0,0-.34-7.66,2.15,2.15,0,0,0-1.85-1.9c-1.9-.19-3.81-.36-5.72-.37-7,0-14.08,0-21.11,0a15.28,15.28,0,0,1-3.75-.52,2.05,2.05,0,0,1-1.25-1.29,27,27,0,0,1-.45-4.74q0-28.32,0-56.62a24.43,24.43,0,0,1,.34-4.77,2.24,2.24,0,0,1,2-1.79c2.22-.13,4.45-.26,6.68-.28,7.36-.06,14.71-.06,22.07-.12a3,3,0,0,0,3.22-2.81c.1-2.56.16-5.11.17-7.67q0-26.38,0-52.78c0-2.24,0-4.48.05-6.72.08-2.82,1.23-3.94,4.18-4,4.16-.06,8.32-.05,12.47-.05q28.8,0,57.58,0a35.21,35.21,0,0,1,5.73.34,2.19,2.19,0,0,1,1.76,2c.12,2.55.27,5.1.28,7.65q0,27.82,0,55.66a55.38,55.38,0,0,0,.45,6.68,2,2,0,0,0,1.29,1.3,39.13,39.13,0,0,0,5.72.44c15.67,0,31.34,0,47,0q5.28,0,10.55.09a3.05,3.05,0,0,1,2.9,3.15c.08,1.6.13,3.2.13,4.79q0,27.36,0,54.7c0,1.6-.12,3.19-.22,4.78a2.82,2.82,0,0,1-2.57,2.36c-2.23.09-4.47.17-6.71.17q-23,0-46.06,0c-2.24,0-4.48,0-6.72,0-5,.09-5.68.77-5.78,5.38,0,.64,0,1.28,0,1.92q0,57.09,0,114.2a51.44,51.44,0,0,0,1.54,13.29,21.23,21.23,0,0,0,19.2,16.2,77.54,77.54,0,0,0,35.76-5c2.09-.82,4.12-1.76,6.18-2.62,3.32-1.37,4.2-.9,4.29,2.23,0,.32,0,.64,0,1q0,27.84,0,55.66c0,.64,0,1.28,0,1.92a4.83,4.83,0,0,1-2.9,4.55,120,120,0,0,1-29.38,11.49,136.6,136.6,0,0,1-51.43,2.4,135.08,135.08,0,0,1-14.14-2.55q-27.07-6.7-40.36-31.36a84.55,84.55,0,0,1-9.45-31,223.24,223.24,0,0,1-1.41-25.86C3262.88,1150.5,3262.81,1132.59,3262.8,1114.67Z" transform="translate(-576.21 -716.7)"/><path class="cls-2" d="M1785.05,1058.38q0,93.06,0,186.12c0,11.8,1.25,11.07-10.6,11.07h-62.36c-2.24,0-4.47-.12-6.71-.21a3.2,3.2,0,0,1-2.3-2.65c0-1-.07-1.91-.08-2.87,0-2.24,0-4.48,0-6.72q0-184.68,0-369.36c0-3.19.12-6.38.24-9.57a2.79,2.79,0,0,1,2.59-2.33c1.6-.08,3.2-.17,4.79-.17h67.16c1.28,0,2.56,0,3.84.06a3.28,3.28,0,0,1,3.25,2.85c.08,1,.16,1.91.17,2.87,0,2.56,0,5.11,0,7.67Z" transform="translate(-576.21 -716.7)"/><path class="cls-2" d="M2812.68,1331.38c25.49-.17,41.46,6.18,54.57,19.11,14.5,14.3,20.48,32,19.47,52.18a64.66,64.66,0,0,1-5.16,22.29c-12.21,28.54-39,41.41-63.72,40.88-27.39-.58-52.54-18-61.28-44.19-6.72-20.15-5.28-39.83,5.73-58.13C2775.2,1342.06,2794.84,1331.9,2812.68,1331.38Zm54.32,68.13c-.05-8.14-.65-12.35-2.59-18-6.92-20.32-25.8-34.33-47.58-33-15.87.94-28,7.91-36.47,21.32a52.72,52.72,0,0,0-7.89,31.09,50.32,50.32,0,0,0,11,30.07c21.59,26.9,63.55,22.26,78.3-8.36A49.59,49.59,0,0,0,2867,1399.51Z" transform="translate(-576.21 -716.7)"/><path class="cls-2" d="M1694.6,1331.4c24.46-.83,56.73,14.55,65.14,51s-12.37,70.29-45.17,80.35c-35.37,10.84-71.68-7.77-83.23-40.82-11.24-32.16,1.77-70.69,36.65-85.46A62,62,0,0,1,1694.6,1331.4Zm47.1,67.81a48.82,48.82,0,0,0-5.7-25c-8.88-17.12-27.31-29.73-52.27-24.9-12.52,2.43-22.09,9.66-28.77,20.59-6,9.86-8.34,20.61-7.66,32.1a49.5,49.5,0,0,0,12.28,30.54c21.92,24.94,62.93,20.39,77.47-11.09A47.62,47.62,0,0,0,1741.7,1399.21Z" transform="translate(-576.21 -716.7)"/><path class="cls-2" d="M2203.92,1398.27q0,27.33,0,54.67c0,2.55-.15,5.1-.24,7.65a1.91,1.91,0,0,1-1.9,1.81,58,58,0,0,1-15.24-.18,1.88,1.88,0,0,1-1.19-1.25,35.66,35.66,0,0,1-.41-4.73c-.12-3.52-.12-7-.3-10.54,0-.41-.83-.83-1.35-1.13-.17-.11-.62.08-.83.26a25.15,25.15,0,0,0-2.07,1.93c-1.32,1.39-2.57,2.84-3.9,4.23a45.12,45.12,0,0,1-28.53,14.27,57.76,57.76,0,0,1-23.73-2c-17.12-5.36-27.1-17.39-31.14-34.55a61.89,61.89,0,0,1-1.74-14.25q.06-37.41,0-74.82c0-1,.09-1.91.15-2.87a2.83,2.83,0,0,1,2.29-2.64q7.18-.11,14.36-.12a2.68,2.68,0,0,1,2.28,2.6c.09,2.88.16,5.75.16,8.63,0,20.14,0,40.29,0,60.43a77.87,77.87,0,0,0,1.36,15.25,35.82,35.82,0,0,0,5.94,14,28.21,28.21,0,0,0,14.29,10.8,41.58,41.58,0,0,0,28.2-.22c12.07-4.41,19.13-13.38,22.76-25.38a51.76,51.76,0,0,0,1.8-15.18q-.07-30.21,0-60.43c0-2.55,0-5.11.12-7.66.06-1.74,1.26-2.79,3.15-2.9.63,0,1.27-.09,1.91-.08,15.77.25,13.73-2.4,13.8,13.56C2204,1364.38,2203.92,1381.32,2203.92,1398.27Z" transform="translate(-576.21 -716.7)"/><path class="cls-2" d="M3150,1419.21c0,11.84,0,23.68,0,35.51,0,1.92-.13,3.83-.26,5.74a2,2,0,0,1-1.82,1.9q-7.65.18-15.3,0a2,2,0,0,1-1.7-2c-.08-2.88-.19-5.75-.2-8.63,0-19.83,0-39.67,0-59.5,0-4.47-.38-9-.79-13.4a34.94,34.94,0,0,0-1.39-6.54c-3.78-12.81-13.49-22.51-30.46-23.4a42.17,42.17,0,0,0-14.24,1.5c-12.68,3.73-20.85,12-25,24.35a39.13,39.13,0,0,0-2.16,13.2c.07,4.8,0,9.6,0,14.4q0,25.9,0,51.83c0,2.22-.13,4.46-.35,6.67a1.81,1.81,0,0,1-1.12,1.3,47.28,47.28,0,0,1-16.14.07,1.81,1.81,0,0,1-1.17-1.26c-.23-2.53-.4-5.08-.4-7.62q0-45.6,0-91.18c0-5.44,0-10.88,0-16.32.13-13.68-1.73-11.79,12.53-12,.64,0,1.28,0,1.92,0,3.78.09,4.64.87,4.73,4.35.11,4.48.19,9,.33,13.42,0,.18.44.39.7.52s.69.37.83.26a18.91,18.91,0,0,0,2.16-1.84c2.93-2.94,5.72-6,8.78-8.83a38.59,38.59,0,0,1,20.57-9.65c8.9-1.32,17.85-1.31,26.63,1.26a43,43,0,0,1,26.88,21.63,47,47,0,0,1,5.57,17.23c.49,4.45.88,8.92.93,13.39C3150.11,1396.81,3150,1408,3150,1419.21Z" transform="translate(-576.21 -716.7)"/><path class="cls-2" d="M1436.27,1331.81a86.14,86.14,0,0,1,42.61,12.89,2.39,2.39,0,0,1,1,3.29c-1.76,3-3.53,6.09-5.36,9.09-2,3.27-2.83,2.8-5.39,1.4a91.34,91.34,0,0,0-20.29-8.46,54.76,54.76,0,0,0-21.88-1.24,22.37,22.37,0,0,0-11.93,5.71,16.35,16.35,0,0,0-4.68,7.14c-1.88,5.67-.95,10.79,3.49,14.92a27.55,27.55,0,0,0,6.22,4.41,86.83,86.83,0,0,0,10.6,4.42c5.73,2,11.56,3.71,17.33,5.62,3.63,1.21,7.24,2.51,10.83,3.86a51.38,51.38,0,0,1,11.79,6.34c11.05,7.88,15.1,18.67,12.81,31.85-2.18,12.59-9.48,21.46-20.82,27a54.86,54.86,0,0,1-28,5.21,88.92,88.92,0,0,1-46.42-16.37,8.63,8.63,0,0,1-2-2,2,2,0,0,1-.27-1.72c2.51-3.68,5.07-7.34,7.74-10.91a1.87,1.87,0,0,1,2.57-.3c2.14,1.4,4.26,2.83,6.46,4.14a79.54,79.54,0,0,0,22,9.17,63.63,63.63,0,0,0,19,1.4,26.46,26.46,0,0,0,13.48-4.57c7.25-4.95,9.42-11.25,7.64-20.07a13.06,13.06,0,0,0-2.74-5,21.08,21.08,0,0,0-8.35-6.3c-4.08-1.81-8.28-3.37-12.51-4.8-7.26-2.45-14.62-4.62-21.88-7.08a78.64,78.64,0,0,1-9.71-4.06,46.78,46.78,0,0,1-7.31-4.56c-7.63-5.79-11.56-13.57-11.45-23.16.14-13.53,5.9-24,17.68-30.91,6.75-4,14.19-5.74,21.92-6.38C1432.42,1331.68,1434.35,1331.81,1436.27,1331.81Z" transform="translate(-576.21 -716.7)"/><path class="cls-2" d="M3349.46,1331.72a86.7,86.7,0,0,1,40.49,12.9,2.48,2.48,0,0,1,1.07,3.25q-1.61,2.94-3.31,5.82c-4.26,7.14-3.52,6.93-10.72,3a73.44,73.44,0,0,0-17.82-6.92,54.13,54.13,0,0,0-20.94-1,22.4,22.4,0,0,0-12.65,6.3,16,16,0,0,0-4.8,11.17,12.77,12.77,0,0,0,3.5,9.63,22.86,22.86,0,0,0,6.9,5.12,107.62,107.62,0,0,0,10.62,4.36c7.55,2.6,15.17,5,22.76,7.47a68.33,68.33,0,0,1,14,6.23,38,38,0,0,1,10.8,9.36,24.89,24.89,0,0,1,5.46,14.08c.26,5.12.31,10.22-1.29,15.19a36.32,36.32,0,0,1-18.83,22,54.34,54.34,0,0,1-27.89,5.66,88.5,88.5,0,0,1-47.37-16.36,9.18,9.18,0,0,1-2.07-2,2,2,0,0,1-.3-1.74c2.49-3.7,5.08-7.34,7.67-11a2.35,2.35,0,0,1,2.64-.29c2.43,1.53,4.82,3.15,7.29,4.62a78.36,78.36,0,0,0,22.13,8.9,59.42,59.42,0,0,0,19.07,1.09,26.42,26.42,0,0,0,14.06-5.58c4.92-3.84,7-9,6.86-15.11a14.26,14.26,0,0,0-4.67-10.18,31.7,31.7,0,0,0-10.52-6.55c-4.45-1.75-9-3.17-13.59-4.65-6.07-2-12.18-3.85-18.25-5.83a60.93,60.93,0,0,1-12.16-5.62,34.46,34.46,0,0,1-10-8.8,24.12,24.12,0,0,1-5.21-14.16c-.11-4.47-.24-8.94,1.09-13.32a34.67,34.67,0,0,1,18.79-21.86C3330.15,1333.05,3338.57,1331.58,3349.46,1331.72Z" transform="translate(-576.21 -716.7)"/><path class="cls-2" d="M2369.43,1393.39q0-17.27,0-34.52a33,33,0,0,0-.34-5.72,2.75,2.75,0,0,0-1.75-1.89,57.2,57.2,0,0,0-6.69-.34c-2.23-.07-4.47,0-6.7-.17-.94-.07-2-.63-2-1.68-.07-4.45-.07-8.91.07-13.36a2,2,0,0,1,2-1.68c4.46-.18,8.92-.3,13.38-.5a2,2,0,0,0,1.79-1.92,47.66,47.66,0,0,0,.22-5.74c0-8,0-16,0-24a26,26,0,0,1,.33-4.76,2.1,2.1,0,0,1,2-1.75q7.17-.08,14.35-.05a2.65,2.65,0,0,1,2.34,2.53c.08,3.83.15,7.67.17,11.5,0,6.71,0,13.43.05,20.14,0,3.52.84,4.3,4.67,4.32,8.63.06,17.26,0,25.9,0,2.55,0,5.11.07,7.66.15a2.48,2.48,0,0,1,2.32,2.53c0,4.15,0,8.29-.06,12.44a2.37,2.37,0,0,1-2,1.74c-3.19.08-6.38.16-9.57.18-8.63.06-17.26.07-25.89.15a3,3,0,0,0-3,3c-.07,1.27-.11,2.55-.11,3.83q0,33.09,0,66.18a45.54,45.54,0,0,0,.63,8.58c1.59,8,6.75,12.89,14.85,14.14a40.33,40.33,0,0,0,18-1.06c1.52-.45,3.05-.93,4.57-1.42a1.68,1.68,0,0,1,2,1.32c.09,1.92.2,3.83.19,5.75,0,9.21,1,8.68-8.95,11.71a49.47,49.47,0,0,1-27.48.22c-11.49-3.06-18.61-10.61-21.59-22.15a48.46,48.46,0,0,1-1.5-12.33c0-11.83,0-23.66,0-35.49Z" transform="translate(-576.21 -716.7)"/><path class="cls-2" d="M1913.91,1370.86q0-40.26,0-80.5c0-2.55.08-5.11.28-7.65a1.83,1.83,0,0,1,1.23-1.3,58,58,0,0,1,16.17.18,1.88,1.88,0,0,1,1.18,1.27,30.12,30.12,0,0,1,.37,4.75q0,20.12,0,40.25,0,61.8,0,123.62c0,2.87-.05,5.75-.12,8.62a2.6,2.6,0,0,1-2.46,2.43c-.63.06-1.26.17-1.9.17-3.83,0-7.66,0-11.5,0-2.31,0-3.2-1.06-3.24-3.65s0-5.11,0-7.67Z" transform="translate(-576.21 -716.7)"/><path class="cls-2" d="M2600.05,1398.76q0,28.27,0,56.57a41.55,41.55,0,0,1-.45,5.68,1.87,1.87,0,0,1-1.22,1.23,65.84,65.84,0,0,1-15.24.23,2.91,2.91,0,0,1-2.22-2.67q-.06-1.92-.06-3.84,0-57.53,0-115a20.88,20.88,0,0,1,.36-4.75,2.81,2.81,0,0,1,1.78-1.89,59.88,59.88,0,0,1,15.25,0,1.94,1.94,0,0,1,1.28,1.27,24.27,24.27,0,0,1,.5,4.73c0,12.47,0,24.93,0,37.4Z" transform="translate(-576.21 -716.7)"/><path class="cls-2" d="M2591.12,1284.91c2.53,0,5.07-.05,7.6,0a2.75,2.75,0,0,1,2.86,3q0,7.6,0,15.2a2.92,2.92,0,0,1-3.17,2.83q-7.6.09-15.21,0c-2.15,0-3.31-1.29-3.33-3.68,0-4.75,0-9.5,0-14.26,0-2.22,1.17-3.24,3.66-3.28s5.07,0,7.61,0Z" transform="translate(-576.21 -716.7)"/></svg>