<?xml version="1.0" encoding="utf-8"?>
<!-- Generator: Adobe Illustrator 26.4.0, SVG Export Plug-In . SVG Version: 6.00 Build 0)  -->
<svg version="1.1" id="Layer_1" xmlns="http://www.w3.org/2000/svg" xmlns:xlink="http://www.w3.org/1999/xlink" x="0px" y="0px"
	 viewBox="0 0 841.89 595.28" style="enable-background:new 0 0 841.89 595.28;" xml:space="preserve">
<style type="text/css">
	.st0{clip-path:url(#SVGID_00000102541644275378321310000006112825213218266018_);fill:#2D2D2C;}
</style>
<g>
	<defs>
		<rect id="SVGID_1_" x="64.58" y="241.61" width="707.55" height="122.2"/>
	</defs>
	<clipPath id="SVGID_00000129191949161297698820000015887164929384201129_">
		<use xlink:href="#SVGID_1_"  style="overflow:visible;"/>
	</clipPath>
</g>
<g>
	<defs>
		<rect id="SVGID_00000132786791568815677330000009149608883222427522_" x="160.3" y="98.57" width="522.71" height="398.18"/>
	</defs>
	<clipPath id="SVGID_00000059309589558674957760000013265135606492195719_">
		<use xlink:href="#SVGID_00000132786791568815677330000009149608883222427522_"  style="overflow:visible;"/>
	</clipPath>
	<path style="clip-path:url(#SVGID_00000059309589558674957760000013265135606492195719_);fill:#2D2D2C;" d="M319.57,297.66
		c0,35.21-27.24,64.97-65.39,64.97c-20.12,0-40.66-10.06-54.07-28.08v-73.77c12.15-15.93,32.27-28.08,56.17-28.08
		C294.43,232.7,319.57,263.29,319.57,297.66 M359.39,297.66c0-39.4-20.96-72.51-50.72-90.12c-13.41-7.96-29.76-12.57-48.2-12.57
		c-22.21,0-43.59,6.71-61.61,22.21v-18.02H160.3v297.59h39.82V378.98c15.93,13.83,36.05,21.38,59.52,21.38
		c17.6,0,36.05-5.03,49.46-12.99C338.85,369.76,359.39,337.06,359.39,297.66 M450.58,295.42c0-16.35-12.99-29.34-29.34-29.34
		c-16.35,0-29.34,12.99-29.34,29.34c0,16.35,12.99,29.34,29.34,29.34C437.59,324.76,450.58,311.76,450.58,295.42 M643.19,334.55
		c-13.41,18.02-33.95,28.08-54.07,28.08c-38.14,0-65.39-29.76-65.39-64.97c0-34.37,25.15-64.97,63.29-64.97
		c23.89,0,44.01,12.15,56.16,28.08V334.55z M683.01,396.16V98.57h-39.82v117.78c-17.6-14.67-38.98-21.38-60.36-21.38
		c-18.44,0-34.79,4.61-48.2,12.57c-29.76,17.6-50.72,50.72-50.72,90.12s20.54,72.09,50.3,89.7c13.41,7.96,31.85,12.99,49.46,12.99
		c23.47,0,44.85-7.96,60.78-22.21v18.02H683.01z"/>
</g>
</svg>
