<?xml version="1.0" encoding="utf-8"?>
<!-- Generator: Adobe Illustrator 26.4.0, SVG Export Plug-In . SVG Version: 6.00 Build 0)  -->
<svg version="1.1" id="Layer_1" xmlns="http://www.w3.org/2000/svg" xmlns:xlink="http://www.w3.org/1999/xlink" x="0px" y="0px"
	 viewBox="0 0 841.89 595.28" style="enable-background:new 0 0 841.89 595.28;" xml:space="preserve">
<style type="text/css">
	.st0{clip-path:url(#SVGID_00000134241070605402622060000006837592553400576684_);fill:#2D2D2C;}
</style>
<g>
	<defs>
		<rect id="SVGID_1_" x="64.58" y="241.61" width="707.55" height="122.2"/>
	</defs>
	<clipPath id="SVGID_00000103261982191087861230000004537793602906008480_">
		<use xlink:href="#SVGID_1_"  style="overflow:visible;"/>
	</clipPath>
	<path style="clip-path:url(#SVGID_00000103261982191087861230000004537793602906008480_);fill:#2D2D2C;" d="M760.04,331.99h12.09
		v-90.38h-12.09V331.99z M732.7,313.28c-4.07,5.47-10.31,8.53-16.42,8.53c-11.58,0-19.86-9.04-19.86-19.73
		c0-10.44,7.64-19.73,19.22-19.73c7.26,0,13.37,3.69,17.06,8.53V313.28z M733.08,331.99h11.71v-59.83h-11.71v5.47
		c-5.47-4.71-11.97-6.75-18.71-6.75c-5.6,0-10.57,1.4-14.64,3.82c-9.04,5.35-15.4,15.4-15.4,27.37c0,11.97,6.24,21.89,15.28,27.24
		c4.07,2.42,9.67,3.95,15.02,3.95c7.13,0,13.62-2.42,18.46-6.75V331.99z M675.48,321.04c-1.78,0.51-4.84,0.76-6.62,0.76
		c-3.18,0-6.62-1.15-8.27-3.18c-1.53-1.78-1.78-4.46-1.78-7.64v-28h19.09v-10.82h-19.09v-16.55h-12.09v16.55h-15.28v10.82h15.28
		v27.37c0,6.49,1.27,11.97,4.84,15.91c3.82,4.33,9.42,7,16.93,7c3.44,0,7.13-0.51,9.42-1.27L675.48,321.04z M608.21,250.9
		c0,4.46,3.44,7.89,7.89,7.89s8.02-3.44,8.02-7.89s-3.56-8.02-8.02-8.02S608.21,246.45,608.21,250.9 M610.12,331.99h12.09v-59.83
		h-12.09V331.99z M582.65,313.28c-4.07,5.47-10.31,8.53-16.42,8.53c-11.58,0-19.86-9.04-19.86-19.73c0-10.44,7.64-19.73,19.22-19.73
		c7.26,0,13.37,3.69,17.06,8.53V313.28z M582.65,326.77v3.31c0,7.51-1.15,12.09-3.31,15.4c-2.93,4.46-8.02,6.87-14.51,6.87
		c-9.8,0-15.4-4.96-19.73-10.69l-8.91,8.27c3.82,5.98,13.62,13.88,29.15,13.88c11.84,0,21-5.47,25.84-14.77
		c2.42-4.71,3.56-10.69,3.56-19.6v-57.28h-11.71v5.47c-5.47-4.71-11.97-6.75-18.71-6.75c-5.6,0-10.57,1.4-14.64,3.82
		c-9.04,5.35-15.4,15.4-15.4,27.37c0,11.97,6.24,21.89,15.28,27.24c4.07,2.42,9.67,3.95,15.02,3.95
		C571.7,333.26,577.81,330.97,582.65,326.77 M507.38,250.9c0,4.46,3.44,7.89,7.89,7.89c4.46,0,8.02-3.44,8.02-7.89
		s-3.56-8.02-8.02-8.02C510.81,242.88,507.38,246.45,507.38,250.9 M509.29,331.99h12.09v-59.83h-12.09V331.99z M480.7,313.28
		c-4.07,5.47-10.31,8.53-16.42,8.53c-11.58,0-19.86-9.04-19.86-19.73c0-10.44,7.64-19.73,19.22-19.73c7.26,0,13.37,3.69,17.06,8.53
		V313.28z M481.09,331.99h11.71v-90.38H480.7v35.77c-5.35-4.46-11.84-6.49-18.33-6.49c-5.6,0-10.57,1.4-14.64,3.82
		c-9.04,5.35-15.4,15.4-15.4,27.37c0,11.97,6.24,21.89,15.28,27.24c4.07,2.42,9.67,3.95,15.02,3.95c7.13,0,13.62-2.42,18.46-6.75
		V331.99z M402.86,301.39c0,4.96,3.95,8.91,8.91,8.91s8.91-3.95,8.91-8.91c0-4.96-3.95-8.91-8.91-8.91S402.86,296.43,402.86,301.39
		 M384.25,312.51c-3.82,5.09-9.42,9.29-17.31,9.29c-11.46,0-19.86-8.02-19.86-19.73c0-11.33,8.27-19.73,19.09-19.73
		c7.64,0,13.24,4.46,16.55,9.04l8.91-7.51c-5.6-7.76-15.02-12.98-25.46-12.98c-17.95,0-31.19,13.49-31.19,31.19
		c0,17.69,13.49,31.19,31.95,31.19c10.95,0,21.64-5.73,26.6-14L384.25,312.51z M308.09,250.9c0,4.46,3.44,7.89,7.89,7.89
		s8.02-3.44,8.02-7.89s-3.56-8.02-8.02-8.02S308.09,246.45,308.09,250.9 M310,331.99h12.09v-59.83H310V331.99z M281.85,331.99h12.09
		v-90.38h-12.09V331.99z M221.07,290.87c3.69-4.84,9.8-8.53,17.06-8.53c11.58,0,19.22,9.29,19.22,19.73
		c0,10.69-8.27,19.73-19.86,19.73c-6.11,0-12.35-3.06-16.42-8.53V290.87z M220.69,326.52c4.84,4.33,11.33,6.75,18.46,6.75
		c5.35,0,10.95-1.53,15.02-3.95c9.04-5.35,15.28-15.28,15.28-27.24c0-11.97-6.36-22.02-15.4-27.37c-4.07-2.42-9.04-3.82-14.64-3.82
		c-6.49,0-12.98,2.04-18.33,6.49v-35.77h-12.09v90.38h11.71V326.52z M163.74,333.26c8.27,0,14.89-4.2,17.57-6.75v5.47h11.71v-59.83
		h-12.09v41.12c-3.44,4.07-9.42,8.53-16.8,8.53c-4.58,0-8.91-2.04-11.58-5.22c-2.16-2.55-3.44-5.86-3.44-11.97v-32.46h-12.09v30.55
		c0,10.06,1.78,15.91,5.47,20.49C147.45,329.44,155.21,333.26,163.74,333.26 M76.67,290.87c3.69-4.84,9.8-8.53,17.06-8.53
		c11.58,0,19.22,9.29,19.22,19.73c0,10.69-8.27,19.73-19.86,19.73c-6.11,0-12.35-3.06-16.42-8.53V290.87z M76.67,326.77
		c4.84,4.2,10.95,6.49,18.08,6.49c5.35,0,10.95-1.53,15.02-3.95c9.04-5.35,15.28-15.28,15.28-27.24c0-11.97-6.36-22.02-15.4-27.37
		c-4.07-2.42-9.04-3.82-14.64-3.82c-6.75,0-13.24,2.04-18.71,6.75v-5.47H64.58v90.38h12.09V326.77z"/>
</g>
</svg>
